PathFileType	4	(X/Y/Z)	C:\Users\Basilio\Documents\Thesis Gigler\squatting_fais\c3dfiles\044\SLS_front_pre1\markers_experimental.trc
DataRate	CameraRate	NumFrames	NumMarkers	Units	OrigDataRate	OrigDataStartFrame	OrigNumFrames
200.000000	200.000000	4	60	mm	200.000000	1373	1570
Frame#	Time	FHD			LBHD			RBHD			C7			T10			CLAV			LSHO			LUUPA			LMUPA			LDUPA			LLEP			LMEP			LUL			LRFIN			RSHO			RUPA1			RMUPA			RDUPA			RLEP			RMEP			RUL			RUFIN			LASI			RASI			USACR			LSACR			LTHI1			LTHI2			LTHI3			LTHI4			LLFC			LMFC			LTIB1			LTIB2			LTIB3			LTIB4			LLMAL			LMMAL			LHEE			LMT1			LMT2			LMT5			RTHI			RTHI2			RTHI3			RTHI4			RLFC			RMFC			RTIB1			RTIB2			RTIB3			RTIB4			RLMAL			RHEE			RMT1			RMT2			RMT5			RMMAL			RSACR			LRAD			
		X1	Y1	Z1	X2	Y2	Z2	X3	Y3	Z3	X4	Y4	Z4	X5	Y5	Z5	X6	Y6	Z6	X7	Y7	Z7	X8	Y8	Z8	X9	Y9	Z9	X10	Y10	Z10	X11	Y11	Z11	X12	Y12	Z12	X13	Y13	Z13	X14	Y14	Z14	X15	Y15	Z15	X16	Y16	Z16	X17	Y17	Z17	X18	Y18	Z18	X19	Y19	Z19	X20	Y20	Z20	X21	Y21	Z21	X22	Y22	Z22	X23	Y23	Z23	X24	Y24	Z24	X25	Y25	Z25	X26	Y26	Z26	X27	Y27	Z27	X28	Y28	Z28	X29	Y29	Z29	X30	Y30	Z30	X31	Y31	Z31	X32	Y32	Z32	X33	Y33	Z33	X34	Y34	Z34	X35	Y35	Z35	X36	Y36	Z36	X37	Y37	Z37	X38	Y38	Z38	X39	Y39	Z39	X40	Y40	Z40	X41	Y41	Z41	X42	Y42	Z42	X43	Y43	Z43	X44	Y44	Z44	X45	Y45	Z45	X46	Y46	Z46	X47	Y47	Z47	X48	Y48	Z48	X49	Y49	Z49	X50	Y50	Z50	X51	Y51	Z51	X52	Y52	Z52	X53	Y53	Z53	X54	Y54	Z54	X55	Y55	Z55	X56	Y56	Z56	X57	Y57	Z57	X58	Y58	Z58	X59	Y59	Z59	X60	Y60	Z60	

1374	6.865	-228.7369842529297	1809.855346679688	-906.3725585937502	-360.3249511718751	1762.1044921875	-977.3956298828127	-395.6090393066407	1744.799682617188	-815.241638183594	-413.9311828613282	1571.307983398438	-902.2982177734377	-400.0357666015626	1264.200073242188	-902.917663574219	-271.8928527832032	1540.667602539063	-902.933288574219	-315.3439025878907	1590.914184570313	-1053.621459960938	-157.0854187011719	1524.842407226563	-1151.074340820313	-125.8036117553711	1535.647338867188	-1112.891967773438	-89.76655578613283	1508.401245117188	-1153.828247070313	-32.81548690795899	1497.5	-1143.41015625	-56.9066848754883	1424.078002929688	-1123.668334960938	nan	nan	nan	226.0332489013672	1487.957275390625	-909.535339355469	-324.3235168457032	1572.757446289063	-737.7521362304689	-173.1593475341797	1511.990234375	-638.5349731445314	-140.2209167480469	1527.091430664063	-674.3697509765626	-104.5442810058594	1502.696044921875	-634.2316284179689	-42.25736236572266	1497.49755859375	-643.4627075195314	-56.82917404174806	1418.039306640625	-659.6345214843751	207.0982971191407	1479.1064453125	-773.7159423828127	nan	nan	nan	-204.4766235351563	1080.502563476563	-1007.062927246094	-204.0374145507813	1066.402465820313	-789.9138793945315	-378.0995483398438	1117.070068359375	-895.500427246094	-380.0417175292969	1084.232421875	-921.679138183594	-308.0812072753907	842.7322387695315	-1079.047119140625	-276.9934387207032	763.9619750976564	-1080.112426757813	-229.1113433837891	764.9407958984376	-1073.998413085938	-306.7129211425782	712.4293823242189	-1068.048583984375	-297.2748718261719	551.3425903320314	-1058.444213867188	-285.2308654785157	541.6032714843751	-936.220642089844	-277.5841674804688	372.5382690429688	-993.7271728515627	-304.2292785644532	329.6136779785157	-1066.39111328125	-274.3877868652344	326.1763305664063	-1030.536254882813	-290.4945983886719	247.4563903808594	-1004.088195800781	-343.7804870605469	132.5989990234375	-1054.663452148438	-323.9988403320313	137.5555725097657	-970.8215942382815	-408.4588317871095	111.8401336669922	-1007.909912109375	-202.6336669921876	62.2623748779297	-985.5169677734377	-200.2244262695313	63.14112854003908	-1031.770385742188	-238.0018005371094	50.75358963012697	-1079.122192382813	-296.1587829589844	794.8947753906252	-713.2403564453126	-253.6575469970704	741.7216796875001	-713.2401123046876	-222.0974884033204	744.7670898437501	-718.7816772460939	-276.9431762695313	661.6287231445314	-728.2269287109376	-277.7160339355469	546.5203247070314	-734.6029663085939	-288.6650390625001	540.0641479492189	-857.9193115234377	-245.8079681396485	414.5563964843751	-763.2190551757814	-316.8588867187501	350.9052124023438	-708.2775878906251	-277.5834960937501	339.5076599121094	-729.9292602539064	-275.2697448730469	287.7139587402344	-755.8836059570314	-351.4853820800782	141.7774963378907	-732.7954101562501	-416.7788696289064	115.3264236450196	-770.0853271484377	-217.0566711425782	69.18837738037111	-817.0359497070315	-207.1681518554688	63.23677825927736	-781.5090332031252	-240.2658233642579	47.84591674804688	-725.1246948242189	-340.5300292968751	146.7734832763672	-816.477233886719	-380.1614379882813	1088.731079101563	-864.7085571289065	212.2766723632813	1470.050415039063	-1011.026306152344	
1375	6.87	-228.5803680419922	1809.849243164063	-905.9313964843752	-360.2706909179688	1762.245361328125	-976.909118652344	-395.6422119140626	1744.831909179688	-814.800964355469	-413.8161926269532	1571.100463867188	-901.875427246094	-399.8426513671876	1264.2841796875	-902.5028076171877	-271.8813171386719	1540.714233398438	-902.4788208007815	-315.3329772949219	1590.896362304688	-1053.161499023438	-156.9422302246094	1525.04541015625	-1150.700439453125	-125.6812362670899	1535.610595703125	-1112.386108398438	-89.6321258544922	1508.4462890625	-1153.359497070313	-32.70441818237305	1497.606811523438	-1142.944702148438	-56.60487747192384	1424.39990234375	-1123.337280273438	nan	nan	nan	226.2007598876954	1488.130615234375	-909.1806640625002	-324.2212524414063	1572.672729492188	-737.4495239257814	-173.0664825439453	1511.954467773438	-638.2725830078126	-140.0963439941407	1527.19189453125	-674.0025634765626	-104.2382583618164	1503.006469726563	-633.8942260742189	-42.11615371704102	1497.43408203125	-642.8537597656251	-56.67282485961915	1418.259033203125	-659.4033203125001	207.3442077636719	1479.366455078125	-773.2879028320315	nan	nan	nan	-204.1298370361329	1080.52978515625	-1006.877563476563	-203.685531616211	1066.328979492188	-789.6821899414065	-377.7894287109376	1117.044677734375	-895.1519165039065	-379.8687438964844	1084.036987304688	-921.3152465820315	-307.8507385253907	842.7535400390627	-1078.814331054688	-276.8578186035157	764.0027465820314	-1079.920166015625	-228.9817810058594	764.9375610351564	-1073.685791015625	-306.5628051757813	712.4382324218751	-1067.851196289063	-297.4250183105469	551.3985595703126	-1058.25439453125	-285.3984375000001	541.7359619140626	-936.0914306640627	-277.7109680175782	372.5327758789063	-993.6584472656252	-304.2374572753907	329.7459411621094	-1066.312622070313	-274.4548645019532	326.2416076660157	-1030.4423828125	-290.5687866210938	247.5236206054688	-1004.041076660156	-343.7822875976563	132.6430358886719	-1054.580810546875	-323.9849853515626	137.5423889160157	-970.8123168945315	-408.4136657714845	111.8710174560547	-1007.819458007813	-202.6859130859376	62.2703323364258	-985.5393066406252	-200.1699371337891	63.0436134338379	-1031.6904296875	-238.0124816894532	50.75151443481447	-1079.135131835938	-295.7198181152344	794.8245849609377	-712.9133911132814	-253.3806610107422	741.6588134765626	-713.0631713867189	-221.8145599365235	744.6163330078126	-718.8104248046876	-276.7310791015626	661.5567016601564	-727.9965209960939	-277.6297302246094	546.5031738281251	-734.5111694335939	-288.7377319335938	540.1000366210939	-857.8039550781252	-245.7662353515626	414.4941406250001	-763.1958007812501	-316.7689819335938	350.7966003417969	-708.1978759765626	-277.4921875000001	339.3243103027344	-729.9253540039064	-275.2400512695313	287.6221618652344	-755.9093017578126	-351.4735412597657	141.7573852539063	-732.8084716796876	-416.8686828613282	115.390983581543	-770.0625000000002	-217.0747070312501	69.13876342773439	-817.024108886719	-207.1280212402344	63.22571182250978	-781.5621337890627	-240.2639312744141	47.84221267700196	-725.1248779296876	-340.5251159667969	146.7565155029297	-816.452819824219	-378.1738586425782	1087.400268554688	-864.1533203125002	212.4801025390626	1470.140014648438	-1010.524719238281	
1376	6.875	-228.4585876464844	1809.827270507813	-905.5235595703127	-360.3664550781251	1762.131225585938	-976.4377441406252	-395.7142639160157	1744.665161132813	-814.2221679687502	-413.6925659179689	1570.958374023438	-901.337585449219	-399.8098144531251	1264.356079101563	-902.1053466796877	-271.9365844726563	1540.700561523438	-902.0156860351565	-315.3731994628907	1591.087280273438	-1052.645751953125	-156.7739562988282	1525.325805664063	-1150.279907226563	-125.6647872924805	1535.7578125	-1111.863525390625	-89.49322509765626	1508.568481445313	-1152.858032226563	-32.17372512817384	1497.34912109375	-1142.336791992188	-56.3011932373047	1424.432250976563	-1122.869873046875	nan	nan	nan	226.3280334472657	1488.153564453125	-908.6539306640627	-324.0702209472657	1572.526489257813	-737.0241088867189	-172.9788970947266	1512.10546875	-638.0946655273439	-140.0533905029297	1527.234741210938	-673.6459350585939	-104.0498580932617	1503.085571289063	-633.6833496093751	-42.03448486328126	1497.527709960938	-642.5113525390626	-56.41061782836915	1418.38916015625	-659.0389404296876	207.4985046386719	1479.573852539063	-772.9022216796877	nan	nan	nan	-203.9111328125001	1080.480712890625	-1006.636413574219	-203.442855834961	1066.263061523438	-789.5209960937502	-377.5119323730469	1116.932983398438	-894.7278442382815	-379.7798156738282	1084.1201171875	-921.014587402344	-307.6665954589844	842.8040161132815	-1078.623046875	-276.7161865234376	764.0269775390626	-1079.687622070313	-228.8229522705079	764.8787231445314	-1073.377563476563	-306.5497741699219	712.4709472656251	-1067.587036132813	-297.4441833496094	551.4634399414064	-1058.017333984375	-285.4530334472657	541.8490600585939	-935.924011230469	-277.8258972167969	372.5757446289063	-993.5360107421877	-304.2702636718751	329.8073425292969	-1066.204467773438	-274.7171325683594	326.2557373046876	-1030.24658203125	-290.5206604003907	247.4655456542969	-1003.965942382813	-343.8359069824219	132.6689910888672	-1054.569702148438	-323.9873046875001	137.5268249511719	-970.7677001953127	-408.4824218750001	111.9142608642578	-1007.818115234375	-202.6693267822266	62.19311904907228	-985.4954833984377	-200.1561279296876	63.01194763183595	-1031.609497070313	-237.9678344726563	50.74142837524415	-1079.12353515625	-295.2919616699219	794.822937011719	-712.7480468750001	-252.9285125732422	741.5823364257814	-712.9136962890626	-221.5395812988282	744.4702758789064	-718.7517089843751	-276.4979248046876	661.5598754882814	-727.8536376953126	-277.4670715332032	546.3887329101564	-734.3637695312501	-288.7357177734376	540.0820312500001	-857.7174072265627	-245.7230377197266	414.5613098144532	-763.1747436523439	-316.6549682617188	350.8123779296876	-708.1738891601564	-277.3585510253907	339.2633972167969	-730.0267944335939	-275.2126464843751	287.6090698242188	-755.9176025390626	-351.4958190917969	141.7252502441407	-732.8211059570314	-416.8687744140626	115.4059753417969	-770.0882568359377	-217.1315155029297	69.11699676513673	-817.0545654296877	-207.1918334960938	63.19649124145509	-781.6315917968752	-240.2358398437501	47.84436798095704	-725.1030273437501	-340.5704040527344	146.7475738525391	-816.5177001953127	-378.1762695312501	1087.426879882813	-863.8504028320315	212.7114868164063	1470.382690429688	-1010.174682617188	
1377	6.88	-228.3474884033204	1809.811645507813	-905.0129394531252	-360.2030334472657	1762.177124023438	-976.0466308593752	-395.7593383789064	1744.614379882813	-813.7728271484377	-413.5452880859376	1570.823486328125	-900.759948730469	-399.5940551757814	1264.280639648438	-901.6892089843752	-271.7983093261719	1540.775756835938	-901.5193481445315	-315.5642700195313	1591.10546875	-1052.124145507813	-156.7660675048828	1525.684204101563	-1149.826538085938	-125.5185623168946	1536.01904296875	-1111.413452148438	-89.46829223632814	1508.812866210938	-1152.39794921875	-32.01192855834962	1497.478393554688	-1141.837036132813	-56.1192970275879	1424.481567382813	-1122.367553710938	nan	nan	nan	226.6404418945313	1488.314208984375	-908.1653442382815	-323.9296875000001	1572.365112304688	-736.5421752929689	-172.806625366211	1512.133544921875	-637.6314697265626	-139.7266082763672	1527.121337890625	-673.2261352539064	-103.8910751342774	1503.123413085938	-633.2871704101564	-41.98085403442384	1497.621337890625	-642.2094726562501	-56.20275115966798	1418.398681640625	-658.6724853515626	207.5890808105469	1479.68408203125	-772.4006958007815	nan	nan	nan	-203.767562866211	1080.4541015625	-1006.365905761719	-203.1277465820313	1066.299560546875	-789.2880859375002	-377.2799377441407	1116.739501953125	-894.3187255859377	-379.4226684570313	1084.1005859375	-920.7222290039065	-307.5356750488282	842.9244384765627	-1078.368774414063	-276.5702819824219	764.0784301757814	-1079.467895507813	-228.6478118896485	764.8836059570314	-1073.10595703125	-306.4785766601563	712.5234985351564	-1067.358642578125	-297.6069335937501	551.4495239257814	-1057.78466796875	-285.5043945312501	541.9107666015626	-935.7091064453127	-277.7694091796876	372.6720581054688	-993.3887329101565	-304.3919677734376	329.7806091308594	-1066.13916015625	-274.6163635253907	326.3702392578126	-1030.061401367188	-290.6786499023438	247.6652832031251	-1003.938293457031	-343.8301086425782	132.6992492675782	-1054.541625976563	-324.0009765625001	137.5925750732422	-970.738464355469	-408.4332275390626	111.8786087036133	-1007.821594238281	-202.6543121337891	62.20783996582033	-985.486267089844	-200.1496582031251	63.066219329834	-1031.715454101563	-237.9988861083985	50.8066864013672	-1079.1162109375	-295.0933227539063	794.728454589844	-712.6002197265626	-252.7733306884766	741.5256347656251	-712.7944946289064	-221.4027557373047	744.4483032226564	-718.6602172851564	-276.2963867187501	661.5331420898439	-727.6454467773439	-277.2960205078126	546.3564453125001	-734.2512817382814	-288.7417602539063	540.1008300781251	-857.5605468750002	-245.5525360107422	414.4752502441407	-763.2847900390626	-316.5643615722657	350.7970275878907	-708.0531616210939	-277.2278137207032	339.1780395507813	-729.9680786132814	-275.1773376464844	287.5781555175782	-755.9270629882814	-351.5002441406251	141.7509307861328	-732.8570556640626	-416.8753662109376	115.3967971801758	-770.0569458007815	-217.0524291992188	69.15688323974611	-817.058776855469	-207.233383178711	63.21053314208986	-781.617370605469	-240.2402648925782	47.83101272583009	-725.1220703125001	-340.6222534179688	146.7240600585938	-816.5532836914065	-378.0604553222657	1087.474487304688	-863.6382446289065	211.7807922363282	1471.389282226563	-1009.790832519531	
